<?xml version="1.0" standalone="no"?>
<!DOCTYPE svg PUBLIC "-//W3C//DTD SVG 20010904//EN"
 "http://www.w3.org/TR/2001/REC-SVG-20010904/DTD/svg10.dtd">
<svg version="1.0" xmlns="http://www.w3.org/2000/svg"
 width="1489.000000pt" height="2047.000000pt" viewBox="0 0 1489.000000 2047.000000"
 preserveAspectRatio="xMidYMid meet">

<g transform="translate(0.000000,2047.000000) scale(0.100000,-0.100000)"
fill="#000000" stroke="none">
<path d="M1285 20463 c-230 -19 -471 -103 -670 -234 -101 -67 -304 -269 -370
-369 -108 -163 -183 -346 -222 -545 -17 -86 -18 -503 -18 -9080 0 -8577 1
-8994 18 -9080 39 -199 114 -382 222 -545 64 -97 268 -301 365 -365 163 -108
346 -183 545 -222 86 -17 388 -18 6290 -18 5902 0 6204 1 6290 18 199 39 382
114 545 222 100 66 302 269 369 370 102 155 171 322 214 515 l21 95 4 7065 3
7065 -2563 2557 -2563 2557 -4220 -1 c-2321 -1 -4238 -3 -4260 -5z m2880
-7817 c468 -150 642 -723 336 -1102 -234 -291 -650 -348 -955 -130 -392 280
-383 876 19 1145 132 88 255 123 415 117 77 -3 126 -11 185 -30z m7475 -666
l0 -580 -2915 0 -2915 0 0 580 0 580 2915 0 2915 0 0 -580z m-7505 -2115 c332
-89 556 -419 514 -757 -21 -169 -80 -288 -204 -414 -66 -66 -97 -89 -175 -128
-209 -103 -421 -103 -629 0 -114 56 -225 160 -289 269 -242 415 -6 940 468
1041 80 17 232 12 315 -11z m7503 -677 l-3 -583 -2910 0 -2910 0 -3 583 -2
582 2915 0 2915 0 -2 -582z m-7519 -2109 c71 -18 199 -81 268 -133 113 -86
212 -239 249 -386 21 -84 21 -234 0 -325 -54 -228 -232 -422 -461 -502 -73
-25 -93 -28 -220 -28 -131 0 -145 2 -226 31 -258 92 -438 316 -468 582 -37
333 160 637 484 746 105 36 260 42 374 15z m7519 -681 l-3 -583 -2910 0 -2910
0 -3 583 -2 582 2915 0 2915 0 -2 -582z"/>
</g>
</svg>
